<mxfile host="app.diagrams.net" agent="Mozilla/5.0 (Macintosh; Intel Mac OS X 10.15; rv:132.0) Gecko/20100101 Firefox/132.0" version="24.9.3">
  <diagram name="Pagina-1" id="wGSwFEroQtITKu6cOerQ">
    <mxGraphModel dx="1946" dy="978" grid="0" gridSize="10" guides="1" tooltips="1" connect="1" arrows="1" fold="1" page="1" pageScale="1" pageWidth="827" pageHeight="1169" background="#000000" math="0" shadow="0">
      <root>
        <mxCell id="0" />
        <mxCell id="1" parent="0" />
        <mxCell id="YmjVHsQyhy_1mbR8aOv2-1" value="Primary Location" style="swimlane;whiteSpace=wrap;html=1;fillColor=none;labelBackgroundColor=none;strokeColor=#BAC8D3;fontColor=#EEEEEE;" vertex="1" parent="1">
          <mxGeometry x="90" y="200" width="200" height="200" as="geometry" />
        </mxCell>
        <mxCell id="YmjVHsQyhy_1mbR8aOv2-3" value="Prism&lt;br&gt; Central" style="ellipse;whiteSpace=wrap;html=1;aspect=fixed;fillColor=none;labelBackgroundColor=none;strokeColor=#BAC8D3;fontColor=#EEEEEE;" vertex="1" parent="YmjVHsQyhy_1mbR8aOv2-1">
          <mxGeometry x="130" y="40" width="60" height="60" as="geometry" />
        </mxCell>
        <mxCell id="YmjVHsQyhy_1mbR8aOv2-5" value="PE1" style="whiteSpace=wrap;html=1;aspect=fixed;fillColor=none;labelBackgroundColor=none;strokeColor=#BAC8D3;fontColor=#EEEEEE;" vertex="1" parent="YmjVHsQyhy_1mbR8aOv2-1">
          <mxGeometry x="10" y="40" width="80" height="80" as="geometry" />
        </mxCell>
        <mxCell id="YmjVHsQyhy_1mbR8aOv2-4" value="PE2" style="whiteSpace=wrap;html=1;aspect=fixed;fillColor=none;labelBackgroundColor=none;strokeColor=#BAC8D3;fontColor=#EEEEEE;" vertex="1" parent="YmjVHsQyhy_1mbR8aOv2-1">
          <mxGeometry x="100" y="110" width="80" height="80" as="geometry" />
        </mxCell>
        <mxCell id="YmjVHsQyhy_1mbR8aOv2-9" value="" style="endArrow=classic;startArrow=classic;html=1;rounded=0;exitX=1;exitY=0.5;exitDx=0;exitDy=0;entryX=0;entryY=0.667;entryDx=0;entryDy=0;entryPerimeter=0;fontColor=default;fillColor=none;labelBackgroundColor=none;strokeColor=#0B4D6A;" edge="1" parent="YmjVHsQyhy_1mbR8aOv2-1" source="YmjVHsQyhy_1mbR8aOv2-5" target="YmjVHsQyhy_1mbR8aOv2-3">
          <mxGeometry width="50" height="50" relative="1" as="geometry">
            <mxPoint x="80" y="110" as="sourcePoint" />
            <mxPoint x="130" y="60" as="targetPoint" />
            <Array as="points" />
          </mxGeometry>
        </mxCell>
        <mxCell id="YmjVHsQyhy_1mbR8aOv2-11" value="" style="endArrow=classic;startArrow=classic;html=1;rounded=0;exitX=0.25;exitY=0;exitDx=0;exitDy=0;fontColor=default;fillColor=none;labelBackgroundColor=none;strokeColor=#0B4D6A;" edge="1" parent="YmjVHsQyhy_1mbR8aOv2-1" source="YmjVHsQyhy_1mbR8aOv2-4">
          <mxGeometry width="50" height="50" relative="1" as="geometry">
            <mxPoint x="100" y="150" as="sourcePoint" />
            <mxPoint x="150" y="100" as="targetPoint" />
          </mxGeometry>
        </mxCell>
        <mxCell id="YmjVHsQyhy_1mbR8aOv2-2" value="DR Location" style="swimlane;whiteSpace=wrap;html=1;fillColor=none;labelBackgroundColor=none;strokeColor=#BAC8D3;fontColor=#EEEEEE;" vertex="1" parent="1">
          <mxGeometry x="440" y="200" width="200" height="200" as="geometry" />
        </mxCell>
        <mxCell id="YmjVHsQyhy_1mbR8aOv2-7" value="PE3" style="whiteSpace=wrap;html=1;aspect=fixed;fillColor=none;labelBackgroundColor=none;strokeColor=#BAC8D3;fontColor=#EEEEEE;" vertex="1" parent="YmjVHsQyhy_1mbR8aOv2-2">
          <mxGeometry x="110" y="40" width="80" height="80" as="geometry" />
        </mxCell>
        <mxCell id="YmjVHsQyhy_1mbR8aOv2-8" value="" style="endArrow=classic;startArrow=classic;html=1;rounded=0;entryX=0;entryY=0.388;entryDx=0;entryDy=0;entryPerimeter=0;fontColor=default;fillColor=none;labelBackgroundColor=none;strokeColor=#0B4D6A;" edge="1" parent="1" target="YmjVHsQyhy_1mbR8aOv2-7">
          <mxGeometry width="50" height="50" relative="1" as="geometry">
            <mxPoint x="280" y="270" as="sourcePoint" />
            <mxPoint x="370" y="270" as="targetPoint" />
            <Array as="points">
              <mxPoint x="320" y="270" />
            </Array>
          </mxGeometry>
        </mxCell>
        <mxCell id="YmjVHsQyhy_1mbR8aOv2-12" value="IST situation" style="swimlane;whiteSpace=wrap;html=1;fillColor=none;labelBackgroundColor=none;strokeColor=#BAC8D3;fontColor=#EEEEEE;" vertex="1" parent="1">
          <mxGeometry x="70" y="160" width="610" height="260" as="geometry" />
        </mxCell>
        <mxCell id="YmjVHsQyhy_1mbR8aOv2-13" value="Primary Location" style="swimlane;whiteSpace=wrap;html=1;fillColor=none;labelBackgroundColor=none;strokeColor=#BAC8D3;fontColor=#EEEEEE;" vertex="1" parent="1">
          <mxGeometry x="90" y="550" width="200" height="200" as="geometry" />
        </mxCell>
        <mxCell id="YmjVHsQyhy_1mbR8aOv2-14" value="PC1" style="ellipse;whiteSpace=wrap;html=1;aspect=fixed;fillColor=none;labelBackgroundColor=none;strokeColor=#BAC8D3;fontColor=#EEEEEE;" vertex="1" parent="YmjVHsQyhy_1mbR8aOv2-13">
          <mxGeometry x="130" y="40" width="60" height="60" as="geometry" />
        </mxCell>
        <mxCell id="YmjVHsQyhy_1mbR8aOv2-15" value="PE1" style="whiteSpace=wrap;html=1;aspect=fixed;fillColor=none;labelBackgroundColor=none;strokeColor=#BAC8D3;fontColor=#EEEEEE;" vertex="1" parent="YmjVHsQyhy_1mbR8aOv2-13">
          <mxGeometry x="10" y="40" width="80" height="80" as="geometry" />
        </mxCell>
        <mxCell id="YmjVHsQyhy_1mbR8aOv2-16" value="PE2" style="whiteSpace=wrap;html=1;aspect=fixed;fillColor=none;labelBackgroundColor=none;strokeColor=#BAC8D3;fontColor=#EEEEEE;" vertex="1" parent="YmjVHsQyhy_1mbR8aOv2-13">
          <mxGeometry x="100" y="110" width="80" height="80" as="geometry" />
        </mxCell>
        <mxCell id="YmjVHsQyhy_1mbR8aOv2-17" value="" style="endArrow=classic;startArrow=classic;html=1;rounded=0;exitX=1;exitY=0.5;exitDx=0;exitDy=0;entryX=0;entryY=0.667;entryDx=0;entryDy=0;entryPerimeter=0;fontColor=default;fillColor=none;labelBackgroundColor=none;strokeColor=#0B4D6A;" edge="1" parent="YmjVHsQyhy_1mbR8aOv2-13" source="YmjVHsQyhy_1mbR8aOv2-15" target="YmjVHsQyhy_1mbR8aOv2-14">
          <mxGeometry width="50" height="50" relative="1" as="geometry">
            <mxPoint x="80" y="110" as="sourcePoint" />
            <mxPoint x="130" y="60" as="targetPoint" />
            <Array as="points" />
          </mxGeometry>
        </mxCell>
        <mxCell id="YmjVHsQyhy_1mbR8aOv2-18" value="" style="endArrow=classic;startArrow=classic;html=1;rounded=0;exitX=0.25;exitY=0;exitDx=0;exitDy=0;fontColor=default;fillColor=none;labelBackgroundColor=none;strokeColor=#0B4D6A;" edge="1" parent="YmjVHsQyhy_1mbR8aOv2-13" source="YmjVHsQyhy_1mbR8aOv2-16">
          <mxGeometry width="50" height="50" relative="1" as="geometry">
            <mxPoint x="100" y="150" as="sourcePoint" />
            <mxPoint x="150" y="100" as="targetPoint" />
          </mxGeometry>
        </mxCell>
        <mxCell id="YmjVHsQyhy_1mbR8aOv2-19" value="DR Location" style="swimlane;whiteSpace=wrap;html=1;fillColor=none;labelBackgroundColor=none;strokeColor=#BAC8D3;fontColor=#EEEEEE;" vertex="1" parent="1">
          <mxGeometry x="440" y="550" width="200" height="200" as="geometry" />
        </mxCell>
        <mxCell id="YmjVHsQyhy_1mbR8aOv2-20" value="PE3" style="whiteSpace=wrap;html=1;aspect=fixed;fillColor=none;labelBackgroundColor=none;strokeColor=#BAC8D3;fontColor=#EEEEEE;" vertex="1" parent="YmjVHsQyhy_1mbR8aOv2-19">
          <mxGeometry x="110" y="40" width="80" height="80" as="geometry" />
        </mxCell>
        <mxCell id="YmjVHsQyhy_1mbR8aOv2-22" value="SOLL situation" style="swimlane;whiteSpace=wrap;html=1;fillColor=none;labelBackgroundColor=none;strokeColor=#BAC8D3;fontColor=#EEEEEE;" vertex="1" parent="1">
          <mxGeometry x="70" y="510" width="610" height="260" as="geometry" />
        </mxCell>
        <mxCell id="YmjVHsQyhy_1mbR8aOv2-23" value="&lt;div&gt;PC2&lt;/div&gt;" style="ellipse;whiteSpace=wrap;html=1;aspect=fixed;fillColor=none;labelBackgroundColor=none;strokeColor=#BAC8D3;fontColor=#EEEEEE;" vertex="1" parent="YmjVHsQyhy_1mbR8aOv2-22">
          <mxGeometry x="390" y="80" width="60" height="60" as="geometry" />
        </mxCell>
        <mxCell id="YmjVHsQyhy_1mbR8aOv2-24" value="" style="endArrow=classic;startArrow=classic;html=1;rounded=0;exitX=1;exitY=0.65;exitDx=0;exitDy=0;exitPerimeter=0;fontColor=default;fillColor=none;labelBackgroundColor=none;strokeColor=#0B4D6A;" edge="1" parent="1" source="YmjVHsQyhy_1mbR8aOv2-23" target="YmjVHsQyhy_1mbR8aOv2-20">
          <mxGeometry width="50" height="50" relative="1" as="geometry">
            <mxPoint x="500" y="680" as="sourcePoint" />
            <mxPoint x="550" y="630" as="targetPoint" />
          </mxGeometry>
        </mxCell>
      </root>
    </mxGraphModel>
  </diagram>
</mxfile>
